<?xml version="1.0" encoding="UTF-8"?>
<svg id="Capa_2" data-name="Capa 2" xmlns="http://www.w3.org/2000/svg" viewBox="0 0 396.85 134.62">
  <defs>
    <style>
      .cls-1 {
        fill: #f6303e;
      }

      .cls-2 {
        fill: #fcce01;
      }
    </style>
  </defs>
  <g id="SUBMARCAS">
    <g>
      <path class="cls-2" d="M261.18,0c-7.24,0-13.13,5.89-13.13,13.13s5.89,13.13,13.13,13.13,13.13-5.89,13.13-13.13S268.42,0,261.18,0Z"/>
      <path class="cls-1" d="M220.77,0c-7.24,0-13.13,5.89-13.13,13.13s5.89,13.13,13.13,13.13,13.13-5.89,13.13-13.13-5.89-13.13-13.13-13.13Z"/>
      <path d="M135.82,33.19c-27.96,0-50.71,22.75-50.71,50.71s22.75,50.71,50.71,50.71,50.71-22.75,50.71-50.71-22.75-50.71-50.71-50.71ZM135.82,127.92c-24.27,0-44.02-19.75-44.02-44.02s19.75-44.02,44.02-44.02,44.02,19.75,44.02,44.02-19.75,44.02-44.02,44.02ZM281.39,33.19h-80.83c-7.42,0-13.45,6.03-13.45,13.45,0,6.64,5.97,12.75,13.07,13.4.12.03.24.05.36.05h3.13c2.01,0,3.64,1.64,3.64,3.65v57.43c0,7.42,6.04,13.45,13.45,13.45s13.45-6.04,13.45-13.45V39.89h33.72v13.51h-9.86c-5.71,0-10.35,4.64-10.35,10.34v57.43c0,7.42,6.04,13.45,13.45,13.45s13.45-6.04,13.45-13.45v-61.07h6.76c7.42,0,13.45-6.03,13.45-13.45s-6.03-13.46-13.45-13.46ZM227.52,121.17c0,3.72-3.03,6.76-6.75,6.76s-6.76-3.03-6.76-6.76v-57.43c0-5.7-4.64-10.34-10.33-10.34h-2.51c-3.93-.16-7.37-3.31-7.37-6.76,0-3.72,3.03-6.75,6.75-6.75h26.96v81.28ZM267.94,121.17c0,3.72-3.03,6.76-6.76,6.76s-6.76-3.03-6.76-6.76v-57.43c0-2.01,1.64-3.64,3.65-3.64h9.86v61.07ZM281.39,53.4h-6.76v-13.51h6.76c3.72,0,6.75,3.03,6.75,6.76s-3.03,6.75-6.75,6.75ZM346.14,33.19c-27.96,0-50.71,22.75-50.71,50.71s22.75,50.71,50.71,50.71,50.71-22.75,50.71-50.71-22.75-50.71-50.71-50.71ZM346.14,127.92c-24.27,0-44.02-19.75-44.02-44.02s19.75-44.02,44.02-44.02,44.02,19.75,44.02,44.02-19.75,44.02-44.02,44.02ZM71.64,33.19H13.45c-7.42,0-13.45,6.04-13.45,13.45s6.03,13.45,13.45,13.45h11.99c2.02,0,3.65,1.63,3.65,3.64v57.43c0,7.42,6.04,13.45,13.45,13.45s13.45-6.04,13.45-13.45v-57.43c0-2.01,1.64-3.64,3.65-3.64h11.99c7.42,0,13.45-6.03,13.45-13.45s-6.03-13.45-13.45-13.45ZM71.64,53.4h-11.99c-5.71,0-10.35,4.64-10.35,10.34v57.43c0,3.72-3.03,6.76-6.76,6.76s-6.76-3.03-6.76-6.76v-57.43c0-5.7-4.64-10.34-10.35-10.34h-11.99c-3.72,0-6.75-3.03-6.75-6.75s3.03-6.76,6.75-6.76h58.19c3.72,0,6.75,3.03,6.75,6.76s-3.03,6.75-6.75,6.75ZM135.82,52.53c-17.3,0-31.38,14.08-31.38,31.38s14.07,31.38,31.38,31.38,31.38-14.08,31.38-31.38-14.08-31.38-31.38-31.38ZM135.82,108.59c-13.61,0-24.68-11.07-24.68-24.68s11.07-24.68,24.68-24.68,24.68,11.07,24.68,24.68-11.07,24.68-24.68,24.68ZM346.14,52.53c-17.3,0-31.38,14.08-31.38,31.38s14.08,31.38,31.38,31.38,31.38-14.08,31.38-31.38-14.08-31.38-31.38-31.38ZM346.14,108.59c-13.61,0-24.68-11.07-24.68-24.68s11.07-24.68,24.68-24.68,24.68,11.07,24.68,24.68-11.07,24.68-24.68,24.68Z"/>
    </g>
  </g>
</svg>